<svg xmlns="http://www.w3.org/2000/svg" width="1200" height="675" viewBox="0 0 1200 675">
  <rect width="1200" height="675" fill="white"/>
  <g stroke="#111" stroke-width="12" stroke-linecap="round" stroke-linejoin="round" fill="none">
    <path d="M470 260 C468 185 530 132 612 142 C705 153 758 220 738 292 C722 350 652 382 585 362 C550 352 525 330 510 304" fill="white"/>
    <path d="M510 304 C520 390 482 430 430 398 C386 370 390 308 430 274 C446 260 458 252 480 250" fill="white"/>
    <path d="M585 362 C570 438 606 505 702 510 C790 515 842 468 850 398"/>
    <path d="M580 438 L510 474"/>
    <path d="M730 440 L822 462"/>
    <path d="M505 525 L485 555"/>
    <path d="M725 522 L745 558"/>
    <rect x="772" y="275" width="210" height="72" rx="8" fill="white"/>
    <rect x="805" y="342" width="195" height="72" rx="8" fill="white"/>
    <rect x="750" y="405" width="220" height="72" rx="8" fill="white"/>
  </g>
  <path d="M470 250 C425 250 405 266 408 292 C411 315 445 320 492 310 L492 346 C530 340 550 322 558 290 C565 258 533 250 470 250 Z" fill="#f5a21a" stroke="#111" stroke-width="12" stroke-linecap="round" stroke-linejoin="round"/>
  <circle cx="530" cy="226" r="8" fill="#111"/>
  <circle cx="586" cy="224" r="8" fill="#111"/>
  <text x="806" y="324" font-size="28" font-family="sans-serif" fill="#111">材料</text>
  <text x="840" y="390" font-size="28" font-family="sans-serif" fill="#111">证据</text>
  <text x="795" y="454" font-size="28" font-family="sans-serif" fill="#111">草稿</text>
  <text x="430" y="585" font-size="42" font-family="sans-serif" fill="#111">别催</text>
</svg>
